<?xml version="1.0" encoding="UTF-8" standalone="no"?>
<!DOCTYPE svg PUBLIC "-//W3C//DTD SVG 1.1//EN" "http://www.w3.org/Graphics/SVG/1.1/DTD/svg11.dtd">
<svg width="100%" height="100%" viewBox="0 0 90 90" version="1.1" xmlns="http://www.w3.org/2000/svg" xmlns:xlink="http://www.w3.org/1999/xlink" xml:space="preserve" style="fill-rule:evenodd;clip-rule:evenodd;stroke-linejoin:round;stroke-miterlimit:1.41421;">
    <g transform="matrix(1,0,0,1,-5,-5)">
        <path d="M50,5C25.314,5 5,25.314 5,50C5,74.686 25.314,95 50,95C74.686,95 95,74.686 95,50C95,49.967 95,49.933 95,49.9C95,25.268 74.732,5 50.1,5C50.067,5 50.033,5 50,5L50,5ZM50,92.3C26.795,92.3 7.7,73.205 7.7,50C7.7,26.795 26.795,7.7 50,7.7C73.205,7.7 92.3,26.795 92.3,50C92.3,73.205 73.205,92.3 50,92.3L50,92.3Z" style="fill:white;fill-rule:nonzero;"/>
    </g>
    <g transform="matrix(1,0,0,1,-5,-5)">
        <path d="M27.5,44.2C26.002,44.204 24.539,44.657 23.3,45.5L23.3,41L20.1,41L20.1,51.6C20.1,55.605 23.395,58.9 27.4,58.9C31.405,58.9 34.7,55.605 34.7,51.6C34.7,51.566 34.701,51.533 34.701,51.499C34.701,47.532 31.467,44.254 27.5,44.2L27.5,44.2ZM27.5,56.1C25.179,56.047 23.299,54.123 23.299,51.801C23.299,51.767 23.299,51.734 23.3,51.7C23.297,51.633 23.295,51.567 23.295,51.5C23.295,49.196 25.191,47.3 27.495,47.3C27.497,47.3 27.498,47.3 27.5,47.3C29.821,47.353 31.701,49.277 31.701,51.599C31.701,51.633 31.701,51.666 31.7,51.7C31.701,51.734 31.701,51.767 31.701,51.801C31.701,54.123 29.821,56.047 27.5,56.1L27.5,56.1ZM59.1,47.2C60.466,47.192 61.761,47.821 62.6,48.9L64.5,46.6C63.122,45.145 61.204,44.319 59.2,44.319C55.195,44.319 51.9,47.615 51.9,51.619C51.9,51.646 51.9,51.673 51.9,51.7C51.896,51.801 51.894,51.902 51.894,52.003C51.894,55.898 55.099,59.103 58.994,59.103C59.062,59.103 59.131,59.102 59.2,59.1C61.192,59.121 63.108,58.325 64.5,56.9L62.7,54.5C61.795,55.55 60.486,56.168 59.1,56.2C59.096,56.2 59.093,56.2 59.089,56.2C56.84,56.2 54.989,54.349 54.989,52.1C54.989,52 54.993,51.9 55,51.8C55.1,48.8 56.9,47.2 59.1,47.2ZM43.6,44.2C39.2,44.2 36.6,47.6 36.6,51.5C36.6,55.4 39.6,58.9 43.6,58.9C45.888,58.982 48.095,58.026 49.6,56.3L48,54C46.922,55.323 45.306,56.094 43.6,56.1C41.605,56.214 39.859,54.692 39.7,52.7L50.4,52.7L50.4,51.6C50.4,47.4 47.7,44.2 43.6,44.2ZM39.9,50.1C40.28,48.38 41.839,47.158 43.6,47.2C45.322,47.085 46.842,48.382 47,50.1L39.9,50.1ZM72.5,44.2C72.467,44.2 72.433,44.199 72.4,44.199C68.34,44.199 65,47.54 65,51.599C65,55.659 68.34,58.999 72.4,58.999C76.459,58.999 79.8,55.659 79.8,51.6C79.8,51.567 79.801,51.533 79.801,51.5C79.801,47.495 76.505,44.2 72.501,44.2C72.5,44.2 72.5,44.2 72.5,44.2L72.5,44.2ZM72.5,56.1C70.179,56.047 68.299,54.123 68.299,51.801C68.299,51.767 68.299,51.734 68.3,51.7C68.297,51.633 68.295,51.567 68.295,51.5C68.295,49.196 70.191,47.3 72.495,47.3C72.497,47.3 72.498,47.3 72.5,47.3C74.821,47.353 76.701,49.277 76.701,51.599C76.701,51.633 76.701,51.666 76.7,51.7C76.703,51.767 76.705,51.833 76.705,51.9C76.705,54.204 74.809,56.1 72.505,56.1C72.503,56.1 72.502,56.1 72.5,56.1L72.5,56.1Z" style="fill:white;fill-rule:nonzero;"/>
    </g>
</svg>
